<svg width="12" height="12" viewBox="0 0 148 145" fill="none" xmlns="http://www.w3.org/2000/svg">
<path d="M20.415 140.378C23.25 143.157 27.015 144.686 31.02 144.686C35.025 144.686 38.79 143.157 41.625 140.378L74.145 108.502C79.5309 110.131 85.1361 110.956 90.7725 110.95C98.1601 110.973 105.479 109.558 112.305 106.788C119.13 104.018 125.328 99.9483 130.538 94.8143C138.403 87.1267 143.764 77.3246 145.943 66.6489C148.122 55.9732 147.02 44.9039 142.778 34.8422L138.503 24.6385L106.672 55.8302L90.765 40.2307L122.588 9.03904L112.17 4.84144C105.373 2.09892 98.0927 0.692662 90.7425 0.702644C75.72 0.702644 61.5975 6.43667 50.985 16.8461C43.7324 23.9314 38.5969 32.8275 36.1352 42.5699C33.6734 52.3123 33.9794 62.5293 37.02 72.1134L4.49999 103.989C1.68976 106.747 0.111298 110.485 0.111298 114.383C0.111298 118.282 1.68976 122.02 4.49999 124.778L20.415 140.378ZM54.525 75.7523L52.62 71.2239C49.505 63.8458 48.6946 55.7274 50.2914 47.8974C51.8883 40.0674 55.8206 32.8782 61.59 27.2409C65.8775 23.0111 71.0726 19.7707 76.7977 17.7551C82.5228 15.7396 88.6341 14.9997 94.6875 15.5891L69.54 40.238L106.658 76.6271L131.82 51.9634C132.407 57.9004 131.644 63.8911 129.586 69.5044C127.528 75.1177 124.226 80.2141 119.917 84.4268C108.292 95.8214 90.1875 99.328 75.0375 93.219L70.425 91.3444L31.02 129.983H31.0275L31.02 137.334V129.983L15.105 114.383L54.525 75.7523Z" fill="#374353" fill-opacity="0.3"/>
</svg>
